{
    "asset" : {
        "generator" : "Khronos glTF Blender I/O v1.7.33",
        "version" : "2.0"
    },
    "scene" : 0,
    "scenes" : [
        {
            "name" : "Scene",
            "nodes" : [
                0
            ]
        }
    ],
    "nodes" : [
        {
            "mesh" : 0,
            "name" : "hoodie",
            "rotation" : [
                0.7071068286895752,
                0,
                0,
                0.7071067094802856
            ],
            "scale" : [
                0.008104221895337105,
                0.00810422096401453,
                0.00810422096401453
            ]
        }
    ],
    "materials" : [
        {
            "doubleSided" : true,
            "name" : "itwiki",
            "pbrMetallicRoughness" : {
                "baseColorTexture" : {
                    "index" : 0
                },
                "metallicFactor" : 0,
                "roughnessFactor" : 0.9472049474716187
            }
        }
    ],
    "meshes" : [
        {
            "name" : "hoody.003",
            "primitives" : [
                {
                    "attributes" : {
                        "POSITION" : 0,
                        "NORMAL" : 1,
                        "TEXCOORD_0" : 2,
                        "TEXCOORD_1" : 3
                    },
                    "indices" : 4,
                    "material" : 0
                }
            ]
        }
    ],
    "textures" : [
        {
            "sampler" : 0,
            "source" : 0
        }
    ],
    "images" : [
        {
            "mimeType" : "image/png",
            "name" : "Shirt00_1Material4782_baseColor",
            "uri" : "textures/Shirt00_1Material4782_baseColor.png"
        }
    ],
    "accessors" : [
        {
            "bufferView" : 0,
            "componentType" : 5126,
            "count" : 84374,
            "max" : [
                32.84794235229492,
                15.367021560668945,
                43.3098030090332
            ],
            "min" : [
                -33.45116424560547,
                -15.232722282409668,
                -54.52834701538086
            ],
            "type" : "VEC3"
        },
        {
            "bufferView" : 1,
            "componentType" : 5126,
            "count" : 84374,
            "type" : "VEC3"
        },
        {
            "bufferView" : 2,
            "componentType" : 5126,
            "count" : 84374,
            "type" : "VEC2"
        },
        {
            "bufferView" : 3,
            "componentType" : 5126,
            "count" : 84374,
            "type" : "VEC2"
        },
        {
            "bufferView" : 4,
            "componentType" : 5125,
            "count" : 456900,
            "type" : "SCALAR"
        }
    ],
    "bufferViews" : [
        {
            "buffer" : 0,
            "byteLength" : 1012488,
            "byteOffset" : 0
        },
        {
            "buffer" : 0,
            "byteLength" : 1012488,
            "byteOffset" : 1012488
        },
        {
            "buffer" : 0,
            "byteLength" : 674992,
            "byteOffset" : 2024976
        },
        {
            "buffer" : 0,
            "byteLength" : 674992,
            "byteOffset" : 2699968
        },
        {
            "buffer" : 0,
            "byteLength" : 1827600,
            "byteOffset" : 3374960
        }
    ],
    "samplers" : [
        {
            "magFilter" : 9729,
            "minFilter" : 9987
        }
    ],
    "buffers" : [
        {
            "byteLength" : 5202560,
            "uri" : "scene.bin"
        }
    ]
}
