{
    "asset" : {
        "generator" : "Khronos glTF Blender I/O v1.8.19",
        "version" : "2.0"
    },
    "scene" : 0,
    "scenes" : [
        {
            "name" : "Scene",
            "nodes" : [
                0
            ]
        }
    ],
    "nodes" : [
        {
            "mesh" : 0,
            "name" : "\ufffd\ufffd\ufffd\ufffd.002"
        }
    ],
    "materials" : [
        {
            "doubleSided" : true,
            "name" : "Material",
            "normalTexture" : {
                "index" : 0
            },
            "pbrMetallicRoughness" : {
                "baseColorTexture" : {
                    "index" : 1
                },
                "metallicFactor" : 0,
                "metallicRoughnessTexture" : {
                    "index" : 2
                }
            }
        }
    ],
    "meshes" : [
        {
            "name" : "\ufffd\ufffd\ufffd\ufffd.004",
            "primitives" : [
                {
                    "attributes" : {
                        "POSITION" : 0,
                        "NORMAL" : 1,
                        "TEXCOORD_0" : 2,
                        "TEXCOORD_1" : 3
                    },
                    "indices" : 4,
                    "material" : 0
                }
            ]
        }
    ],
    "textures" : [
        {
            "sampler" : 0,
            "source" : 0
        },
        {
            "sampler" : 0,
            "source" : 1
        },
        {
            "sampler" : 0,
            "source" : 2
        }
    ],
    "images" : [
        {
            "mimeType" : "image/jpeg",
            "name" : "Normal map",
            "uri" : "Textures/Normal%20map.jpg"
        },
        {
            "mimeType" : "image/jpeg",
            "name" : "Color",
            "uri" : "Textures/Color.jpg"
        },
        {
            "mimeType" : "image/png",
            "name" : "Roughness",
            "uri" : "Textures/Roughness.png"
        }
    ],
    "accessors" : [
        {
            "bufferView" : 0,
            "componentType" : 5126,
            "count" : 178551,
            "max" : [
                1.1321356296539307,
                3.300245761871338,
                0.6011591553688049
            ],
            "min" : [
                -1.0805535316467285,
                0.008697605691850185,
                -0.4407615065574646
            ],
            "type" : "VEC3"
        },
        {
            "bufferView" : 1,
            "componentType" : 5126,
            "count" : 178551,
            "type" : "VEC3"
        },
        {
            "bufferView" : 2,
            "componentType" : 5126,
            "count" : 178551,
            "type" : "VEC2"
        },
        {
            "bufferView" : 3,
            "componentType" : 5126,
            "count" : 178551,
            "type" : "VEC2"
        },
        {
            "bufferView" : 4,
            "componentType" : 5125,
            "count" : 975255,
            "type" : "SCALAR"
        }
    ],
    "bufferViews" : [
        {
            "buffer" : 0,
            "byteLength" : 2142612,
            "byteOffset" : 0
        },
        {
            "buffer" : 0,
            "byteLength" : 2142612,
            "byteOffset" : 2142612
        },
        {
            "buffer" : 0,
            "byteLength" : 1428408,
            "byteOffset" : 4285224
        },
        {
            "buffer" : 0,
            "byteLength" : 1428408,
            "byteOffset" : 5713632
        },
        {
            "buffer" : 0,
            "byteLength" : 3901020,
            "byteOffset" : 7142040
        }
    ],
    "samplers" : [
        {
            "magFilter" : 9729,
            "minFilter" : 9987
        }
    ],
    "buffers" : [
        {
            "byteLength" : 11043060,
            "uri" : "Jojo.bin"
        }
    ]
}
