<svg width="130" height="48" viewBox="0 0 130 48" fill="none" xmlns="http://www.w3.org/2000/svg">
<g clip-path="url(#clip0_5105_92079)">
<path d="M56.4372 37.9089C58.0965 37.9089 59.2451 37.1428 59.2451 35.411C59.2451 33.6791 58.0965 32.9131 56.4372 32.9131H53.2279V37.907L56.4372 37.9089ZM51.5507 31.5449H56.62C58.8814 31.5449 60.9232 32.621 60.9232 35.4081C60.9232 38.1793 58.9539 39.2007 56.6558 39.2007H53.2279V44.3096H51.5507V31.5449Z" fill="#0B1E46"/>
<path d="M64.8241 43.3793C66.7388 43.3793 67.8694 42.0488 67.8694 40.2068V39.6235L65.2067 39.8977C63.6746 40.0428 62.8511 40.6628 62.8511 41.7577C62.8539 42.6509 63.4371 43.3793 64.8241 43.3793ZM65.0239 38.8763L67.8685 38.6021V37.6957C67.8685 36.5838 67.175 35.6896 65.6071 35.7075C64.3125 35.7075 63.292 36.2729 63.2176 37.5675H61.7411C61.8146 35.4003 63.4918 34.541 65.6043 34.541C68.1201 34.541 69.4515 35.7659 69.4515 38.0057V44.314H67.9976V42.3447C67.4143 43.694 66.1555 44.5326 64.3511 44.5326C62.199 44.5326 61.269 43.3294 61.269 41.8161C61.2681 40.0428 62.5627 39.1137 65.0239 38.8763Z" fill="#0B1E46"/>
<path d="M80.2158 34.7549H81.6923V36.565C82.2209 35.2694 83.3336 34.541 84.8101 34.541C86.2687 34.541 87.3259 35.2336 87.6727 36.6196C88.2013 35.2882 89.3499 34.541 90.8452 34.541C92.6873 34.541 93.8717 35.6896 93.8717 37.8596V44.314H92.2699V38.2742C92.2699 36.7789 91.6103 35.8489 90.3006 35.8489C88.8053 35.8489 87.8385 37.0342 87.8385 39.0035V44.3102H86.2508V38.2751C86.2508 36.7798 85.5752 35.8498 84.2627 35.8498C82.7674 35.8498 81.8195 37.0351 81.8195 39.0044V44.3112H80.2176L80.2158 34.7549Z" fill="#0B1E46"/>
<path d="M102.655 38.9298C102.619 36.9417 101.561 35.7017 99.9389 35.7017C98.37 35.7017 97.2063 36.7966 97.0575 38.9298H102.655ZM99.9398 34.5352C102.672 34.5352 104.243 36.1945 104.243 39.7684V39.987H97.0405C97.1686 42.2117 98.353 43.3603 100.068 43.3603C101.344 43.3603 102.201 42.7007 102.603 41.7189L104.116 41.8131C103.623 43.4724 102.22 44.5296 100.064 44.5296C97.31 44.5296 95.4321 42.9061 95.4321 39.5357C95.4349 36.1766 97.3307 34.5352 99.9398 34.5352Z" fill="#0B1E46"/>
<path d="M105.925 34.7538H107.401V36.5959C107.948 35.3012 109.133 34.5352 110.811 34.5352C112.889 34.5352 114.075 35.6659 114.075 37.9998V44.3082H112.473V38.5096C112.473 36.7777 111.798 35.8477 110.267 35.8477C108.477 35.8477 107.534 37.0877 107.534 39.0024V44.3091H105.933V34.7538H105.925Z" fill="#0B1E46"/>
<path d="M118.682 35.9768V41.5587C118.682 42.7619 118.938 43.1454 119.907 43.1454C120.28 43.1391 120.651 43.1076 121.02 43.0512V44.327C120.557 44.4165 120.087 44.4595 119.616 44.4552C117.756 44.4552 117.081 43.7249 117.081 41.8112V35.9768H115.072V34.7915H116.603C117.023 34.7915 117.187 34.6275 117.187 34.2261V32.6582H118.682V34.7547H121.017V35.9796L118.682 35.9768Z" fill="#0B1E46"/>
<path d="M123.59 41.5201C123.717 42.7959 124.665 43.3622 126.179 43.3622C127.601 43.3622 128.549 42.8515 128.549 41.8848C128.549 41.1743 128.02 40.7541 126.707 40.3536L124.647 39.7515C123.17 39.3143 122.422 38.4211 122.422 37.1255C122.422 35.2843 123.936 34.5371 125.923 34.5371C128.039 34.5371 129.716 35.3936 129.898 37.3639L128.439 37.4581C128.275 36.2548 127.237 35.7074 125.923 35.7074C124.757 35.6716 123.991 36.1785 123.991 37.0755C123.991 37.8416 124.537 38.2788 125.54 38.5709L127.618 39.173C129.22 39.629 130.135 40.4309 130.135 41.8169C130.135 43.5855 128.621 44.5334 126.141 44.5334C123.807 44.5334 122.294 43.6402 122.13 41.5974L123.59 41.5201Z" fill="#0B1E46"/>
<path d="M78.76 34.7734L75.2039 45.4208C74.5444 47.4994 73.8537 48.1929 71.9946 48.1929C71.7035 48.1929 71.3351 48.175 70.9374 48.1383V46.8983C71.2663 46.9162 71.6121 46.935 71.9042 46.935C72.8879 46.935 73.3072 46.5704 73.7453 45.1843L74.0195 44.3278L70.4079 34.7734H72.1577L74.8101 42.3114L77.0432 34.7734H78.7572H78.76Z" fill="#0B1E46"/>
<path d="M0.25 38.2401C0.25 34.6681 2.90337 31.9629 6.52726 31.9629C9.42373 31.9629 11.6776 33.7484 12.389 36.3321H9.73561C9.16367 35.0836 8.00187 34.3213 6.5103 34.3213C4.2734 34.3213 2.74696 35.9684 2.74696 38.2401C2.74696 40.5119 4.2734 42.159 6.5103 42.159C8.00187 42.159 9.16367 41.3967 9.73561 40.1482H12.389C11.6776 42.7309 9.42373 44.5174 6.52726 44.5174C2.90337 44.5165 0.25 41.8122 0.25 38.2401Z" fill="#0B1E46"/>
<path d="M16.1382 31.5449H13.6582V44.3096H16.1382V31.5449Z" fill="#0B1E46"/>
<path d="M20.0532 39.5414C20.0532 41.1197 21.1293 42.1599 22.5163 42.1599C23.9033 42.1599 24.9793 41.1234 24.9793 39.5414C24.9793 37.981 23.9033 36.9229 22.5163 36.9229C21.1293 36.9229 20.0532 37.9782 20.0532 39.5414ZM27.497 39.5414C27.497 42.42 25.3119 44.5183 22.52 44.5183C19.7451 44.5183 17.561 42.403 17.561 39.5414C17.561 36.6638 19.7809 34.5645 22.52 34.5645C25.2723 34.5645 27.4923 36.6591 27.4923 39.5414H27.497Z" fill="#0B1E46"/>
<path d="M37.7373 34.7734V44.309H35.2573V42.9898C34.5638 43.9603 33.6272 44.5153 32.31 44.5153C30.2116 44.5153 28.9113 43.0765 28.9113 40.7529V34.7734H31.3913V40.2187C31.3913 41.4671 31.8624 42.1606 33.1429 42.1606C34.5129 42.1606 35.2583 41.3456 35.2583 39.7852V34.7734H37.7373Z" fill="#0B1E46"/>
<path d="M46.4654 39.5408C46.4654 37.9805 45.4072 36.9223 44.0212 36.9223C42.6351 36.9223 41.6147 37.9776 41.6147 39.5408C41.6147 41.1191 42.6512 42.1593 44.025 42.1593C45.4072 42.1593 46.4654 41.1191 46.4654 39.5408ZM48.9454 31.5449V44.3096H46.4654V43.0262C45.8058 43.9279 44.8004 44.5178 43.4653 44.5178C40.9853 44.5178 39.113 42.4712 39.113 39.5408C39.113 36.5925 41.0032 34.5639 43.4474 34.5639C44.0383 34.5523 44.6229 34.6872 45.149 34.9565C45.6751 35.2258 46.1264 35.6212 46.4626 36.1073V31.5449H48.9454Z" fill="#0B1E46"/>
<path d="M74.0591 21.6018C78.9564 16.7044 78.9565 8.76431 74.0591 3.86698C69.1618 -1.03034 61.2217 -1.03034 56.3243 3.86699C51.427 8.76431 51.427 16.7044 56.3243 21.6018C61.2217 26.4991 69.1618 26.4991 74.0591 21.6018Z" fill="#6496DC"/>
<path d="M62.4977 16.2395L70.6189 8.11823C70.8196 7.91729 71.0579 7.75788 71.3202 7.64912C71.5825 7.54036 71.8637 7.48438 72.1477 7.48438C72.4317 7.48438 72.7129 7.54036 72.9752 7.64912C73.2375 7.75788 73.4758 7.91729 73.6765 8.11823H73.6812C74.0857 8.5244 74.3128 9.07428 74.3128 9.6475C74.3128 10.2207 74.0857 10.7706 73.6812 11.1768L68.6223 16.2395C67.8097 17.0508 66.7083 17.5064 65.56 17.5064C64.4117 17.5064 63.3104 17.0508 62.4977 16.2395Z" fill="white"/>
<path d="M67.8856 9.22805L59.7643 17.3493C59.5635 17.5503 59.3251 17.7097 59.0627 17.8185C58.8003 17.9272 58.5191 17.9832 58.235 17.9832C57.951 17.9832 57.6697 17.9272 57.4073 17.8185C57.1449 17.7097 56.9065 17.5503 56.7057 17.3493C56.5048 17.1485 56.3453 16.9101 56.2366 16.6477C56.1278 16.3853 56.0718 16.1041 56.0718 15.82C56.0718 15.536 56.1278 15.2547 56.2366 14.9923C56.3453 14.7299 56.5048 14.4915 56.7057 14.2907L61.7647 9.23181C62.5767 8.42117 63.677 7.96555 64.8243 7.96484C65.9717 7.96414 67.0726 8.4184 67.8856 9.22805Z" fill="white"/>
</g>
<defs>
<clipPath id="clip0_5105_92079">
<rect width="130" height="48" fill="white"/>
</clipPath>
</defs>
</svg>
