<svg
  xmlns="http://www.w3.org/2000/svg"
  xmlns:xlink="http://www.w3.org/1999/xlink"
  version="1.1"
  width="838px"
  height="838px"
  style="shape-rendering:geometricPrecision; text-rendering:geometricPrecision; image-rendering:optimizeQuality; fill-rule:evenodd; clip-rule:evenodd"
>
<path
    style="opacity:1"
    fill="#0e0e0e"
    d="M 495.5,185.5 C 481.549,207.229 467.216,228.729 452.5,250C 407.833,250.333 363.167,250.667 318.5,251C 349.667,282.167 380.833,313.333 412,344.5C 447.609,290.929 483.442,237.595 519.5,184.5C 563.833,184.5 608.167,184.5 652.5,184.5C 652.5,206.5 652.5,228.5 652.5,250.5C 630.497,250.333 608.497,250.5 586.5,251C 556.637,295.364 526.971,339.864 497.5,384.5C 549.163,385.333 600.83,385.833 652.5,386C 630.632,408.035 608.632,429.868 586.5,451.5C 564.157,451.167 541.823,451.5 519.5,452.5C 519.624,453.107 519.957,453.44 520.5,453.5C 564.799,497.299 608.965,541.299 653,585.5C 653.5,608.164 653.667,630.831 653.5,653.5C 549.166,653.667 444.833,653.5 340.5,653C 355.363,630.656 370.363,608.489 385.5,586.5C 429.838,586.833 474.172,586.5 518.5,585.5C 518.376,584.893 518.043,584.56 517.5,584.5C 487.188,553.521 456.521,522.854 425.5,492.5C 389.808,545.851 354.141,599.184 318.5,652.5C 273.833,652.5 229.167,652.5 184.5,652.5C 184.5,630.5 184.5,608.5 184.5,586.5C 207.006,586.831 229.34,586.497 251.5,585.5C 280.833,541.5 310.167,497.5 339.5,453.5C 340.043,453.44 340.376,453.107 340.5,452.5C 288.668,451.833 237.002,451.167 185.5,450.5C 206.964,428.511 228.631,406.845 250.5,385.5C 272.843,385.833 295.177,385.5 317.5,384.5C 317.376,383.893 317.043,383.56 316.5,383.5C 272.833,339.167 228.833,295.167 184.5,251.5C 184.5,229.167 184.5,206.833 184.5,184.5C 288.335,184.167 392.001,184.501 495.5,185.5 Z"/>
</svg>
