<svg width="79" height="49" viewBox="0 0 79 49" fill="none" xmlns="http://www.w3.org/2000/svg">
<path d="M50.0575 5.13281H29.1108V42.8728H50.0575V5.13281Z" fill="#FF5F00"/>
<path d="M30.444 24.0019C30.4409 20.3706 31.2619 16.7859 32.8451 13.5179C34.4283 10.2498 36.7325 7.38365 39.584 5.13525C36.575 2.76942 33.0438 1.15761 29.2851 0.434322C25.5263 -0.28896 21.6491 -0.102727 17.977 0.977478C14.3049 2.05768 10.9444 4.00053 8.17603 6.64386C5.40764 9.2872 3.31164 12.5543 2.06297 16.1726C0.81429 19.7909 0.449158 23.6554 0.998044 27.4435C1.54693 31.2317 2.99391 34.8336 5.21822 37.9486C7.44254 41.0637 10.3797 43.6016 13.7845 45.3504C17.1893 47.0993 20.963 48.0084 24.7907 48.0019C30.1597 48.0089 35.3733 46.1998 39.584 42.8686C36.7325 40.6202 34.4283 37.754 32.8451 34.486C31.2619 31.218 30.4409 27.6333 30.444 24.0019Z" fill="#EB001B"/>
<path d="M76.0239 38.8728V38.0995H76.3373V37.9395H75.5239V38.0995H75.8373V38.8728H76.0239ZM77.5639 38.8728V37.9395H77.3239L77.0439 38.6061L76.7639 37.9395H76.5173V38.8728H76.6906V38.1661L76.9506 38.7728H77.1306L77.3906 38.1661V38.8728H77.5639Z" fill="#F79E1B"/>
<path d="M78.3107 24.0004C78.3258 28.4982 77.0725 32.9091 74.6946 36.7269C72.3167 40.5447 68.9105 43.6147 64.867 45.5846C60.8235 47.5545 56.3065 48.3444 51.8345 47.8638C47.3624 47.3831 43.1165 45.6513 39.584 42.8671C42.4336 40.6168 44.7364 37.7503 46.3197 34.4827C47.9029 31.2151 48.7254 27.6313 48.7254 24.0004C48.7254 20.3694 47.9029 16.7857 46.3197 13.5181C44.7364 10.2505 42.4336 7.38397 39.584 5.13371C43.1165 2.34951 47.3624 0.61769 51.8345 0.137005C56.3065 -0.343679 60.8235 0.44625 64.867 2.41614C68.9105 4.38603 72.3167 7.45605 74.6946 11.2739C77.0725 15.0917 78.3258 19.5026 78.3107 24.0004Z" fill="#F79E1B"/>
</svg>
