<svg width="157" height="48" viewBox="0 0 157 48" fill="none" xmlns="http://www.w3.org/2000/svg">
<path d="M34.5905 7.76975L28.761 27.9639H27.7637L21.9342 7.76975C20.9369 4.35254 17.8072 2 14.2304 2H0.25V45.96H14.2476V19.9789H15.245L23.2584 45.96H33.2665L41.2626 19.9789H42.26V45.96H56.2576V2H42.2772C38.7176 2 35.588 4.35254 34.5905 7.76975ZM112.093 45.96H126.177V32.9609H140.347C147.758 32.9609 154.069 28.7709 156.511 22.881H112.093V45.96ZM87.1417 6.63641L77.2884 27.9811H76.291V2H62.2934V45.96H74.1759C77.3056 45.96 80.1426 44.1397 81.4496 41.3236L91.3029 19.9961H92.3007V45.96H106.298V2H94.4155C91.2857 2 88.4487 3.82022 87.1417 6.63641Z" fill="#006848"/>
<path d="M140.989 0C145.03 0 148.693 1.54547 151.462 4.08691C154.557 6.90309 156.5 10.9557 156.5 15.4719C156.5 16.3991 156.397 17.3093 156.242 18.2022H130.242C121.437 18.2022 113.974 12.4324 111.464 4.46469C111.429 4.37882 111.412 4.27579 111.378 4.17276C111.309 3.93236 111.257 3.67478 111.189 3.43438C110.931 2.3182 110.759 1.18486 110.69 0H140.989Z" fill="url(#paint0_linear_5105_91864)"/>
<defs>
<linearGradient id="paint0_linear_5105_91864" x1="156.5" y1="56.9276" x2="110.97" y2="56.9276" gradientUnits="userSpaceOnUse">
<stop stop-color="#1E5CD8"/>
<stop offset="1" stop-color="#02AFFF"/>
</linearGradient>
</defs>
</svg>
