<svg width="147" height="48" viewBox="0 0 147 48" fill="none" xmlns="http://www.w3.org/2000/svg">
<path fill-rule="evenodd" clip-rule="evenodd" d="M36.7773 47.6228H24.133L14.6513 10.3858C14.2013 8.67287 13.2457 7.15857 11.8401 6.44486C8.33223 4.65127 4.46682 3.22385 0.25 2.50394V1.07031H20.619C23.4302 1.07031 25.5386 3.22385 25.89 5.72494L30.8096 32.5853L43.4477 1.07031H55.7406L36.7773 47.6228ZM62.7686 47.6228H50.8271L60.6602 1.07031H72.6017L62.7686 47.6228ZM88.0515 13.9701C88.4029 11.4628 90.5113 10.0292 92.9711 10.0292C96.8365 9.66922 101.047 10.3891 104.561 12.1765L106.67 2.15354C103.156 0.719916 99.2901 0 95.7823 0C84.1922 0 75.7586 6.44821 75.7586 15.3975C75.7586 22.2057 81.7324 25.7804 85.9492 27.934C90.5113 30.0813 92.2683 31.5149 91.9169 33.6623C91.9169 36.8833 88.4029 38.3169 84.895 38.3169C80.6782 38.3169 76.4614 37.2432 72.6021 35.4497L70.4937 45.4788C74.7105 47.2662 79.2726 47.9861 83.4894 47.9861C96.4851 48.3399 104.561 41.8979 104.561 32.2287C104.561 20.0521 88.0515 19.3384 88.0515 13.9701ZM146.353 47.6228L136.871 1.07031H126.686C124.578 1.07031 122.47 2.50394 121.767 4.65127L104.209 47.6228H116.502L118.956 40.8208H134.06L135.465 47.6228H146.353ZM128.443 13.6055L131.951 31.1503H122.118L128.443 13.6055Z" fill="#15195A"/>
</svg>
