<?xml version="1.0" standalone="no"?>
<!DOCTYPE svg PUBLIC "-//W3C//DTD SVG 20010904//EN"
 "http://www.w3.org/TR/2001/REC-SVG-20010904/DTD/svg10.dtd">
<svg version="1.0" xmlns="http://www.w3.org/2000/svg"
 width="46.000000pt" height="41.000000pt" viewBox="0 0 46.000000 41.000000"
 preserveAspectRatio="xMidYMid meet">

<g transform="translate(0.000000,41.000000) scale(0.100000,-0.100000)"
fill="#000000" stroke="none">
<path d="M10 378 c0 -27 10 -42 58 -85 52 -48 55 -52 31 -53 -15 0 -38 -14
-59 -35 l-34 -35 73 0 73 0 -35 -47 c-29 -40 -42 -49 -71 -51 -34 -3 -36 -5
-36 -38 l0 -34 68 0 c63 0 69 2 84 28 10 15 18 22 18 15 0 -6 -4 -15 -10 -18
-30 -19 3 -25 135 -25 l145 0 0 34 c0 29 -9 42 -57 85 -49 43 -55 51 -35 51
22 0 92 47 92 62 0 4 -29 8 -65 10 l-66 3 33 47 c28 40 38 48 66 48 30 0 32 2
32 35 l0 34 -220 1 -220 0 0 -32z m268 0 c-13 -19 -27 -24 -80 -28 l-65 -5 48
-43 47 -42 51 70 51 70 55 0 c52 0 55 -1 55 -25 0 -21 -5 -25 -29 -25 -24 0
-36 -10 -70 -57 l-41 -58 66 -3 67 -3 -23 -24 c-16 -17 -35 -25 -59 -25 l-36
-1 63 -58 c45 -43 62 -65 62 -85 l0 -26 -130 0 c-72 0 -130 3 -130 8 0 4 7 15
14 25 10 13 28 17 77 17 l64 1 -49 44 -49 44 -29 -40 c-30 -42 -35 -55 -16
-43 7 4 8 3 4 -5 -4 -6 -11 -9 -16 -6 -5 3 -17 -6 -26 -20 -14 -22 -23 -25
-75 -25 -56 0 -59 1 -59 25 0 21 5 25 33 25 27 1 38 9 74 58 l41 57 -69 3 -69
3 29 24 c17 15 42 25 59 25 30 0 30 1 -34 62 -43 41 -64 69 -64 85 0 23 0 23
136 23 l136 0 -14 -22z m-7 -42 c-23 -31 -45 -56 -49 -56 -5 0 -21 14 -37 30
l-29 30 55 0 c49 0 56 3 74 29 11 17 21 28 23 26 2 -2 -15 -29 -37 -59z m4
-236 l29 -30 -52 0 c-29 0 -52 3 -52 6 0 8 34 53 41 54 3 0 18 -13 34 -30z"/>
</g>
</svg>
