<?xml version="1.0" standalone="no"?>
<!DOCTYPE svg PUBLIC "-//W3C//DTD SVG 20010904//EN"
 "http://www.w3.org/TR/2001/REC-SVG-20010904/DTD/svg10.dtd">
<svg version="1.0" xmlns="http://www.w3.org/2000/svg"
 width="120.000000pt" height="120.000000pt" viewBox="0 0 120.000000 120.000000"
 preserveAspectRatio="xMidYMid meet">

<g transform="translate(0.000000,120.000000) scale(0.100000,-0.100000)"
fill="#ffffff" stroke="none">
<path d="M30 1105 l0 -95 140 -143 c77 -78 140 -147 140 -153 0 -7 -24 -13
-56 -16 -55 -5 -57 -6 -140 -92 -46 -48 -84 -91 -84 -96 0 -6 67 -10 168 -10
92 0 173 -4 181 -9 11 -7 10 -13 -8 -32 -12 -13 -32 -43 -43 -66 -12 -24 -25
-43 -29 -43 -3 0 -9 -8 -13 -17 -8 -25 -29 -56 -69 -105 -20 -25 -29 -27 -102
-30 l-80 -3 -3 -97 -3 -98 174 0 174 0 11 25 c15 32 31 32 24 0 l-4 -25 387 0
c347 0 386 2 383 16 -3 14 -42 15 -355 14 -233 0 -354 3 -358 10 -3 5 13 40
37 76 l43 66 152 -3 c83 -2 155 -1 158 3 9 8 -215 238 -231 238 -7 0 -38 -39
-69 -87 -31 -49 -70 -107 -86 -131 -16 -23 -29 -47 -29 -52 0 -6 -4 -10 -9
-10 -5 0 -11 -8 -15 -18 -6 -20 -25 -48 -47 -74 -14 -17 -31 -18 -165 -16
l-149 3 -3 40 c-2 21 -1 54 3 72 l6 33 82 0 82 1 50 80 c28 45 57 93 66 108 9
14 34 53 56 86 35 51 38 61 24 67 -9 4 -87 7 -173 7 -87 1 -158 5 -158 9 0 4
31 39 70 76 l70 68 69 -7 c39 -4 71 -3 74 2 4 5 -40 57 -96 115 -56 58 -130
136 -165 173 l-63 67 3 67 3 66 344 3 c191 1 349 -2 354 -7 5 -5 -6 -29 -25
-57 -64 -93 -48 -87 -218 -82 -87 3 -153 1 -156 -4 -4 -5 38 -55 92 -110 129
-131 136 -138 145 -138 9 0 89 118 89 131 0 5 4 9 9 9 5 0 11 8 15 18 5 16 21
43 39 66 5 6 32 47 60 91 l52 80 160 1 c139 1 160 4 163 18 3 14 -16 16 -172
16 -150 0 -176 -2 -176 -15 0 -8 -4 -15 -10 -15 -5 0 -10 7 -10 15 0 13 -50
15 -390 15 l-390 0 0 -95z m780 35 c0 -11 -7 -20 -15 -20 -8 0 -15 -7 -15 -15
0 -8 -4 -15 -10 -15 -5 0 -10 7 -10 15 0 8 5 15 10 15 6 0 10 9 10 20 0 11 7
20 15 20 8 0 15 -9 15 -20z m-60 -80 c0 -11 -3 -20 -7 -20 -5 0 -17 -18 -27
-40 -11 -22 -23 -40 -28 -40 -4 0 -8 -7 -8 -16 0 -8 -6 -22 -12 -29 -28 -32
-38 -45 -38 -51 0 -14 -33 -44 -49 -44 -18 0 -161 148 -161 167 0 10 31 13
130 13 128 0 129 0 155 27 14 15 25 33 25 40 0 7 5 13 10 13 6 0 10 -9 10 -20z
m-84 -707 c14 -16 48 -51 75 -80 28 -29 48 -57 44 -63 -4 -6 -56 -10 -131 -10
-76 0 -124 -4 -124 -10 0 -5 -7 -10 -15 -10 -19 0 -18 18 3 51 9 15 35 54 56
88 21 33 45 61 53 61 8 0 25 -12 39 -27z m-176 -191 c0 -18 -32 -72 -40 -67
-10 6 -1 45 11 45 5 0 9 7 9 15 0 8 5 15 10 15 6 0 10 -4 10 -8z m-50 -87 c0
-8 -4 -15 -10 -15 -5 0 -10 7 -10 15 0 8 5 15 10 15 6 0 10 -7 10 -15z"/>
<path d="M1151 1042 c-12 -22 -18 -23 -82 -21 l-69 4 -53 -80 c-29 -44 -62
-96 -73 -115 -10 -19 -21 -37 -24 -40 -19 -19 -70 -103 -66 -109 3 -4 72 -6
153 -4 198 6 206 1 128 -85 l-57 -62 -77 0 c-42 0 -82 -4 -89 -8 -13 -9 15
-40 217 -247 43 -44 85 -91 94 -105 l17 -24 0 26 c0 19 -33 59 -140 169 -95
97 -136 146 -127 151 6 4 32 8 58 8 43 0 49 4 128 81 115 112 114 113 -79 117
-85 1 -161 4 -168 7 -16 6 -4 28 86 162 34 52 62 98 62 103 0 19 40 30 105 30
68 0 81 8 73 47 -3 16 -5 15 -17 -5z"/>
</g>
</svg>
