<svg width="130" height="130" xmlns="http://www.w3.org/2000/svg" preserveAspectRatio="xMidYMid meet">

    <g>
     <title>background</title>
     <rect fill="#000000" id="canvas_background" height="132" width="132" y="-1" x="-1"/>
    </g>
    <g>
     <title>Layer 1</title>
     <g stroke="null" id="svg_1" fill="#ffffff" transform="translate(0,120) scale(0.10000000149011612,-0.10000000149011612) ">
      <path stroke="null" id="svg_2" d="m81.632394,1035.179097l0,-89.821199l135.228904,-135.204542c74.375897,-73.747932 135.228904,-138.986487 135.228904,-144.659405c0,-6.618404 -23.182098,-12.291322 -54.091562,-15.127781c-53.125641,-4.727432 -55.057483,-5.672918 -135.228904,-86.98474c-44.432354,-45.383343 -81.137343,-86.039254 -81.137343,-90.766685c0,-5.672918 64.71669,-9.454863 162.274685,-9.454863c88.864709,0 167.104289,-3.781945 174.831655,-8.509377c10.625128,-6.618404 9.659207,-12.291322 -7.727366,-30.255562c-11.591049,-12.291322 -30.909464,-40.655911 -41.534592,-62.402096c-11.591049,-22.691671 -24.148019,-40.655911 -28.011702,-40.655911c-2.897762,0 -8.693287,-7.56389 -12.55697,-16.073267c-7.727366,-23.637158 -28.011702,-52.947233 -66.648531,-99.276062c-19.318415,-23.637158 -28.011702,-25.52813 -98.523916,-28.364589l-77.27366,-2.836459l-2.897762,-91.712172l-2.897762,-92.657658l168.07021,0l168.07021,0l10.625128,23.637158c14.488811,30.255562 29.943543,30.255562 23.182098,0l-3.863683,-23.637158l373.811329,0c335.174499,0 372.845408,1.890973 369.947646,15.127781c-2.897762,13.236808 -40.568671,14.182295 -342.901865,13.236808c-225.059534,0 -341.935944,2.836459 -345.799627,9.454863c-2.897762,4.727432 12.55697,37.819452 35.739068,71.856959l41.534592,62.402096l146.819953,-2.836459c80.171422,-1.890973 149.717716,-0.945486 152.615478,2.836459c8.693287,7.56389 -207.67296,225.025741 -223.127692,225.025741c-6.761445,0 -36.704988,-36.873966 -66.648531,-82.257309c-29.943543,-46.328829 -67.614452,-101.167035 -83.069184,-123.858706c-15.454732,-21.746185 -28.011702,-44.437856 -28.011702,-49.165288c0,-5.672918 -3.863683,-9.454863 -8.693287,-9.454863c-4.829604,0 -10.625128,-7.56389 -14.488811,-17.018754c-5.795524,-18.909726 -24.148019,-45.383343 -45.398275,-69.965987c-13.52289,-16.073267 -29.943543,-17.018754 -159.376923,-15.127781l-143.922191,2.836459l-2.897762,37.819452c-1.931841,19.855212 -0.965921,51.056261 2.897762,68.075014l5.795524,31.201048l79.205501,0l79.205501,0.945486l48.296037,75.638905c27.045781,42.546884 55.057483,87.930227 63.750769,102.112521c8.693287,13.236808 32.841305,50.110774 54.091562,81.311822c33.807226,48.219802 36.704988,57.674665 23.182098,63.347583c-8.693287,3.781945 -84.035105,6.618404 -167.104289,6.618404c-84.035105,0.945486 -152.615478,4.727432 -152.615478,8.509377c0,3.781945 29.943543,36.873966 67.614452,71.856959l67.614452,64.293069l66.648531,-6.618404c37.670909,-3.781945 68.580373,-2.836459 71.478135,1.890973c3.863683,4.727432 -38.63683,53.89272 -92.728392,108.730925c-54.091562,54.838206 -125.569697,128.586138 -159.376923,163.569131l-60.853007,63.347583l2.897762,63.347583l2.897762,62.402096l332.276737,2.836459c184.490863,0.945486 337.10634,-1.890973 341.935944,-6.618404c4.829604,-4.727432 -5.795524,-27.419103 -24.148019,-53.89272c-61.818928,-87.930227 -46.364196,-82.257309 -210.570723,-77.529877c-84.035105,2.836459 -147.785874,0.945486 -150.683636,-3.781945c-3.863683,-4.727432 36.704988,-52.001747 88.864709,-104.003494c124.603776,-123.858706 131.365222,-130.47711 140.058508,-130.47711c8.693287,0 85.966946,111.567384 85.966946,123.858706c0,4.727432 3.863683,8.509377 8.693287,8.509377c4.829604,0 10.625128,7.56389 14.488811,17.018754c4.829604,15.127781 20.284336,40.655911 37.670909,62.402096c4.829604,5.672918 30.909464,44.437856 57.955245,86.039254l50.227879,75.638905l154.547319,0.945486c134.262984,0.945486 154.547319,3.781945 157.445082,17.018754c2.897762,13.236808 -15.454732,15.127781 -166.138368,15.127781c-144.888112,0 -170.002051,-1.890973 -170.002051,-14.182295c0,-7.56389 -3.863683,-14.182295 -9.659207,-14.182295c-4.829604,0 -9.659207,6.618404 -9.659207,14.182295c0,12.291322 -48.296037,14.182295 -376.709091,14.182295l-376.709091,0l0,-89.821199zm753.418182,33.092021c0,-10.400349 -6.761445,-18.909726 -14.488811,-18.909726c-7.727366,0 -14.488811,-6.618404 -14.488811,-14.182295c0,-7.56389 -3.863683,-14.182295 -9.659207,-14.182295c-4.829604,0 -9.659207,6.618404 -9.659207,14.182295c0,7.56389 4.829604,14.182295 9.659207,14.182295c5.795524,0 9.659207,8.509377 9.659207,18.909726c0,10.400349 6.761445,18.909726 14.488811,18.909726c7.727366,0 14.488811,-8.509377 14.488811,-18.909726zm-57.955245,-75.638905c0,-10.400349 -2.897762,-18.909726 -6.761445,-18.909726c-4.829604,0 -16.420653,-17.018754 -26.07986,-37.819452c-10.625128,-20.800699 -22.216177,-37.819452 -27.045781,-37.819452c-3.863683,0 -7.727366,-6.618404 -7.727366,-15.127781c0,-7.56389 -5.795524,-20.800699 -11.591049,-27.419103c-27.045781,-30.255562 -36.704988,-42.546884 -36.704988,-48.219802c0,-13.236808 -31.875385,-41.601398 -47.330117,-41.601398c-17.386573,0 -155.51324,139.931973 -155.51324,157.896213c0,9.454863 29.943543,12.291322 125.569697,12.291322c123.637856,0 124.603776,0 149.717716,25.52813c13.52289,14.182295 24.148019,31.201048 24.148019,37.819452c0,6.618404 4.829604,12.291322 9.659207,12.291322c5.795524,0 9.659207,-8.509377 9.659207,-18.909726zm-81.137343,-668.458819c13.52289,-15.127781 46.364196,-48.219802 72.444056,-75.638905c27.045781,-27.419103 46.364196,-53.89272 42.500513,-59.565637c-3.863683,-5.672918 -54.091562,-9.454863 -126.535618,-9.454863c-73.409977,0 -119.774173,-3.781945 -119.774173,-9.454863c0,-4.727432 -6.761445,-9.454863 -14.488811,-9.454863c-18.352494,0 -17.386573,17.018754 2.897762,48.219802c8.693287,14.182295 33.807226,51.056261 54.091562,83.202795c20.284336,31.201048 43.466434,57.674665 51.1938,57.674665c7.727366,0 24.148019,-11.345836 37.670909,-25.52813zm-170.002051,-180.587885c0,-17.018754 -30.909464,-68.075014 -38.63683,-63.347583c-9.659207,5.672918 -0.965921,42.546884 10.625128,42.546884c4.829604,0 8.693287,6.618404 8.693287,14.182295c0,7.56389 4.829604,14.182295 9.659207,14.182295c5.795524,0 9.659207,-3.781945 9.659207,-7.56389zm-48.296037,-82.257309c0,-7.56389 -3.863683,-14.182295 -9.659207,-14.182295c-4.829604,0 -9.659207,6.618404 -9.659207,14.182295c0,7.56389 4.829604,14.182295 9.659207,14.182295c5.795524,0 9.659207,-6.618404 9.659207,-14.182295z"/>
      <path stroke="null" id="svg_3" d="m1164.42955,975.61346c-11.591049,-20.800699 -17.386573,-21.746185 -79.205501,-19.855212l-66.648531,3.781945l-51.1938,-75.638905c-28.011702,-41.601398 -59.887086,-90.766685 -70.512214,-108.730925c-9.659207,-17.96424 -20.284336,-34.982993 -23.182098,-37.819452c-18.352494,-17.96424 -67.614452,-97.38509 -63.750769,-103.058007c2.897762,-3.781945 69.546294,-5.672918 147.785874,-3.781945c191.252308,5.672918 198.979674,0.945486 123.637856,-80.366336l-55.057483,-58.620151l-74.375897,0c-40.568671,0 -79.205501,-3.781945 -85.966946,-7.56389c-12.55697,-8.509377 14.488811,-37.819452 209.604802,-233.535118c41.534592,-41.601398 82.103263,-86.039254 90.79655,-99.276062l16.420653,-22.691671l0,24.582644c0,17.96424 -31.875385,55.783692 -135.228904,159.787186c-91.762471,91.712172 -131.365222,138.041001 -122.671935,142.768432c5.795524,3.781945 30.909464,7.56389 56.023403,7.56389c41.534592,0 47.330117,3.781945 123.637856,76.584391c111.080886,105.894466 110.114965,106.839953 -76.307739,110.621898c-82.103263,0.945486 -155.51324,3.781945 -162.274685,6.618404c-15.454732,5.672918 -3.863683,26.473617 83.069184,153.168782c32.841305,49.165288 59.887086,92.657658 59.887086,97.38509c0,17.96424 38.63683,28.364589 101.421678,28.364589c65.682611,0 78.23958,7.56389 70.512214,44.437856c-2.897762,15.127781 -4.829604,14.182295 -16.420653,-4.727432z"/>
     </g>
    </g>
   </svg>